<svg
    preserveAspectRatio="xMidYMid meet"
    overflow="visible"
    viewBox="0 0 48.5813 54.2485"
    fill="none"
    xmlns="http://www.w3.org/2000/svg"
>
<path
        d="M37.583 21.0465V16.0095H46.447V6.09126H37.583V0H27.6004V21.0465C27.6004 22.2237 27.6988 23.3775 27.8851 24.5021C24.5653 17.2921 17.2769 12.2868 8.81825 12.2868H0V31.0713H8.81825V22.2436C14.8966 22.2436 19.8423 27.1893 19.8423 33.2676C19.8423 39.346 14.8966 44.2916 8.81825 44.2916V54.2485C20.4057 54.2485 29.7991 44.8551 29.7991 33.2676C29.7991 32.0904 29.7007 30.9366 29.5145 29.812C32.8342 37.022 40.1226 42.0273 48.5813 42.0273V32.0705C42.5029 32.0705 37.583 27.1248 37.583 21.0465Z"
        fill="#D72042"
    />
</svg>
