<svg preserveAspectRatio="xMidYMid meet" overflow="visible" style="display: block;" viewBox="0 0 199.476 66.7576" fill="none" xmlns="http://www.w3.org/2000/svg">
<g id="Group">
<g id="Group_2">
<path id="Vector" d="M0.00793149 25.7641H7.3255C7.3255 30.1103 9.55209 31.9129 12.785 31.9129C16.0179 31.9129 18.1375 30.4827 18.1375 27.4083C18.1375 24.3338 14.7461 23.2721 10.8754 22.0558C5.99831 20.4116 0.483386 18.399 0.483386 10.9744C0.483386 4.1362 5.36042 5.84172e-06 12.781 5.84172e-06C20.2016 5.84172e-06 24.9757 4.82557 24.9757 12.5116H17.7651C17.7651 8.53389 15.8039 6.67973 12.674 6.67973C9.54415 6.67973 7.79699 8.16543 7.79699 10.9744C7.79699 14.1558 10.9784 15.1621 14.6867 16.3269C19.6153 17.8641 25.4471 19.6668 25.4471 27.3528C25.4471 34.4564 20.3561 38.6956 12.777 38.6956C5.19798 38.6956 0 33.7671 0 25.7601L0.00793149 25.7641Z" fill="white"/>
<path id="Vector_2" d="M30.7006 0.689369H51.6945V7.74151H38.0182V16.2239H48.1447V22.5867H38.0182V31.069H51.6945V38.0657H30.7006V0.693328V0.689369Z" fill="white"/>
<path id="Vector_3" d="M57.368 0.689369H64.2577L75.2321 22.4242V0.689369H82.6011V38.0617H75.7114L64.6855 16.4339V38.0617H57.3719V0.689369H57.368Z" fill="white"/>
<path id="Vector_4" d="M97.2839 0.689369H105.291L116.107 38.0617H108.631L106.67 30.6927H95.8021L93.734 38.0617H86.3134L97.2878 0.689369H97.2839ZM105.132 24.3853L101.317 9.75414L97.3393 24.3853H105.132Z" fill="white"/>
<path id="Vector_5" d="M119.974 0.689369H127.287V38.0617H119.974V0.689369Z" fill="white"/>
</g>
<g id="Group_3">
<path id="Vector_6" d="M0.839905 43.232H3.76377C5.52681 43.232 6.75104 44.3136 6.75104 46.4807V48.8222C6.75104 50.9656 5.53077 52.1106 3.76377 52.1106H0.839905V43.228V43.232ZM3.56171 50.4664C4.39371 50.4664 5.02367 50.1375 5.02367 48.3983V46.6709C5.02367 45.7121 4.77008 44.896 3.56171 44.896H2.57917V50.4664H3.56171Z" fill="#DD1C4A"/>
<path id="Vector_7" d="M8.1496 43.232H9.88886V52.1145H8.1496V43.232Z" fill="#DD1C4A"/>
<path id="Vector_8" d="M11.0338 49.1906H12.7731C12.7731 50.2247 13.304 50.6526 14.0726 50.6526C14.8412 50.6526 15.3443 50.3119 15.3443 49.5829C15.3443 48.8539 14.5361 48.6003 13.617 48.3111C12.4561 47.9189 11.1487 47.4435 11.1487 45.6765C11.1487 44.0521 12.3095 43.0696 14.0726 43.0696C15.8356 43.0696 16.9687 44.2145 16.9687 46.041H15.2532C15.2532 45.0941 14.7857 44.6543 14.0449 44.6543C13.304 44.6543 12.888 45.0069 12.888 45.6765C12.888 46.4332 13.6447 46.6709 14.5242 46.9482C15.697 47.3127 17.0836 47.7406 17.0836 49.567C17.0836 51.2548 15.8752 52.2651 14.0726 52.2651C12.2699 52.2651 11.0378 51.0923 11.0378 49.1906H11.0338Z" fill="#DD1C4A"/>
<path id="Vector_9" d="M19.4766 44.9079H17.6264V43.232H23.07V44.9079H21.2198V52.1145H19.4805V44.9079H19.4766Z" fill="#DD1C4A"/>
<path id="Vector_10" d="M23.902 43.232H26.7229C28.4978 43.232 29.6943 44.377 29.6943 46.4451V46.6986C29.6943 48.0734 29.1 48.9926 28.1452 49.4204L29.6428 52.1185H27.7411L26.5446 49.8245H25.6373V52.1185H23.8981V43.2359L23.902 43.232ZM26.5089 48.1725C27.2656 48.1725 27.9708 47.8436 27.9708 46.6749V46.4213C27.9708 45.201 27.2894 44.896 26.5089 44.896H25.6413V48.1725H26.5089Z" fill="#DD1C4A"/>
<path id="Vector_11" d="M31.0215 43.232H32.7608V52.1145H31.0215V43.232Z" fill="#DD1C4A"/>
<path id="Vector_12" d="M35.6331 44.9079H33.7829V43.232H39.2265V44.9079H37.3764V52.1145H35.6371V44.9079H35.6331Z" fill="#DD1C4A"/>
<path id="Vector_13" d="M39.7891 49.1788V46.1559C39.7891 44.3413 41.0094 43.0696 42.7764 43.0696C44.5434 43.0696 45.7636 44.3413 45.7636 46.1559V49.1788C45.7636 50.9814 44.5275 52.2413 42.7764 52.2413C41.0252 52.2413 39.7891 50.9814 39.7891 49.1788ZM42.7764 50.5773C43.3667 50.5773 44.0243 50.2643 44.0243 49.2421V46.0925C44.0243 45.098 43.4341 44.7335 42.7764 44.7335C42.1583 44.7335 41.5402 45.0624 41.5402 46.0806V49.2303C41.5402 50.2247 42.1187 50.5773 42.7764 50.5773Z" fill="#DD1C4A"/>
<path id="Vector_14" d="M50.9814 44.9079H49.1312V43.232H54.5748V44.9079H52.7247V52.1145H50.9854V44.9079H50.9814Z" fill="#DD1C4A"/>
<path id="Vector_15" d="M55.4029 43.232H60.3909V44.9079H57.1421V46.9245H59.547V48.4379H57.1421V50.4545H60.3909V52.1185H55.4029V43.2359V43.232Z" fill="#DD1C4A"/>
<path id="Vector_16" d="M61.2229 49.1788V46.1281C61.2229 44.3255 62.4431 43.0656 64.2101 43.0656C66.1752 43.0656 67.1974 44.3492 67.1974 46.4054V46.4292H65.4581V46.3024C65.4581 44.9911 64.8163 44.7296 64.2101 44.7296C63.604 44.7296 62.974 45.0584 62.974 46.0766V49.2263C62.974 50.2722 63.604 50.5852 64.2101 50.5852C65.0184 50.5852 65.4581 50.193 65.4581 48.8975V48.7826H67.1974V48.8341C67.1974 51.0646 66.2148 52.2492 64.2101 52.2492C62.4471 52.2492 61.2229 50.9893 61.2229 49.1748V49.1788Z" fill="#DD1C4A"/>
<path id="Vector_17" d="M68.3305 43.232H69.9667L72.5737 48.3983V43.232H74.3248V52.1145H72.6886L70.0697 46.976V52.1145H68.3305V43.232Z" fill="#DD1C4A"/>
<path id="Vector_18" d="M75.5886 49.1788V46.1559C75.5886 44.3413 76.8089 43.0696 78.5759 43.0696C80.3429 43.0696 81.5631 44.3413 81.5631 46.1559V49.1788C81.5631 50.9814 80.327 52.2413 78.5759 52.2413C76.8248 52.2413 75.5886 50.9814 75.5886 49.1788ZM78.5759 50.5773C79.1662 50.5773 79.8239 50.2643 79.8239 49.2421V46.0925C79.8239 45.098 79.2336 44.7335 78.5759 44.7335C77.9578 44.7335 77.3398 45.0624 77.3398 46.0806V49.2303C77.3398 50.2247 77.9182 50.5773 78.5759 50.5773Z" fill="#DD1C4A"/>
<path id="Vector_19" d="M82.8349 43.232H84.5742V50.4505H87.5218V52.1145H82.8349V43.232Z" fill="#DD1C4A"/>
<path id="Vector_20" d="M88.1636 49.1788V46.1559C88.1636 44.3413 89.3839 43.0696 91.1509 43.0696C92.9179 43.0696 94.1381 44.3413 94.1381 46.1559V49.1788C94.1381 50.9814 92.902 52.2413 91.1509 52.2413C89.3997 52.2413 88.1636 50.9814 88.1636 49.1788ZM91.1509 50.5773C91.7412 50.5773 92.3989 50.2643 92.3989 49.2422V46.0925C92.3989 45.098 91.8086 44.7335 91.1509 44.7335C90.5328 44.7335 89.9148 45.0624 89.9148 46.0806V49.2303C89.9148 50.2247 90.4932 50.5773 91.1509 50.5773ZM91.1627 40.2962H92.9535L91.6303 42.2732H90.3585L91.1667 40.2962H91.1627Z" fill="#DD1C4A"/>
<path id="Vector_21" d="M95.0692 49.1788V46.144C95.0692 44.3294 96.2894 43.0696 98.0406 43.0696C99.7917 43.0696 100.988 44.3057 101.028 46.0687H99.2885C99.2885 45.1258 98.7973 44.7335 98.0683 44.7335C97.2878 44.7335 96.8203 45.1376 96.8203 46.3222V49.2461C96.8203 50.1534 97.2878 50.5813 98.0406 50.5813C98.6824 50.5813 99.2885 50.2287 99.2885 49.2461V49.0956H98.0524V47.5702H101.024V49.1827C101.024 50.9973 99.8036 52.2453 98.0366 52.2453C96.2696 52.2453 95.0652 50.9973 95.0652 49.1827L95.0692 49.1788Z" fill="#DD1C4A"/>
<path id="Vector_22" d="M102.367 43.232H104.106V52.1145H102.367V43.232Z" fill="#DD1C4A"/>
<path id="Vector_23" d="M105.441 49.1788V46.1281C105.441 44.3255 106.662 43.0656 108.429 43.0656C110.394 43.0656 111.416 44.3492 111.416 46.4054V46.4292H109.677V46.3024C109.677 44.9911 109.035 44.7296 108.429 44.7296C107.822 44.7296 107.193 45.0584 107.193 46.0766V49.2263C107.193 50.2722 107.822 50.5852 108.429 50.5852C109.237 50.5852 109.677 50.193 109.677 48.8975V48.7826H111.416V48.8341C111.416 51.0646 110.433 52.2492 108.429 52.2492C106.666 52.2492 105.441 50.9893 105.441 49.1748V49.1788Z" fill="#DD1C4A"/>
<path id="Vector_24" d="M112.284 49.1788V46.1559C112.284 44.3413 113.504 43.0696 115.271 43.0696C117.038 43.0696 118.258 44.3413 118.258 46.1559V49.1788C118.258 50.9814 117.022 52.2413 115.271 52.2413C113.52 52.2413 112.284 50.9814 112.284 49.1788ZM115.271 50.5773C115.861 50.5773 116.519 50.2643 116.519 49.2421V46.0925C116.519 45.098 115.928 44.7335 115.271 44.7335C114.653 44.7335 114.035 45.0624 114.035 46.0806V49.2303C114.035 50.2247 114.613 50.5773 115.271 50.5773Z" fill="#DD1C4A"/>
</g>
<g id="Group_4">
<path id="Vector_25" d="M0.954826 55.8704H2.19093V64.7529H0.954826V55.8704Z" fill="white"/>
<path id="Vector_26" d="M3.95003 55.8704H5.09497L8.67255 62.3956V55.8704H9.92055V64.7529H8.7597L5.18217 58.2515V64.7529H3.94606V55.8704H3.95003Z" fill="white"/>
<path id="Vector_27" d="M11.434 61.7934V58.8061C11.434 56.9916 12.6424 55.7198 14.3935 55.7198C16.1447 55.7198 17.3649 56.9916 17.3649 58.8061V61.7934C17.3649 63.6079 16.1288 64.8678 14.3935 64.8678C12.6582 64.8678 11.434 63.6079 11.434 61.7934ZM14.3935 63.6832C15.2612 63.6832 16.1209 63.1285 16.1209 61.8449V58.7586C16.1209 57.5383 15.3642 56.9084 14.3935 56.9084C13.5259 56.9084 12.6662 57.4631 12.6662 58.7467V61.833C12.6662 63.0533 13.4229 63.6832 14.3935 63.6832Z" fill="white"/>
<path id="Vector_28" d="M17.9949 55.8704H19.3062L21.3466 63.077L23.3989 55.8704H24.6984L21.9766 64.7529H20.7048L17.9949 55.8704Z" fill="white"/>
<path id="Vector_29" d="M27.0636 55.8704H28.4503L31.283 64.7529H29.9875L29.3813 62.7482H26.0811L25.463 64.7529H24.1793L27.0636 55.8704ZM29.0802 61.6785L27.7569 57.2293L26.398 61.6785H29.0802Z" fill="white"/>
<path id="Vector_30" d="M34.2821 64.8559C32.7568 64.6776 31.7386 63.4574 31.7386 61.7934V58.7824C31.7386 56.9678 32.947 55.7079 34.6981 55.7079C36.4493 55.7079 37.6695 57.055 37.6695 58.9091V58.9844H36.4334V58.8972C36.4334 57.8513 35.8788 56.9084 34.6942 56.9084C33.8265 56.9084 32.9668 57.4631 32.9668 58.7467V61.833C32.9668 63.0533 33.7235 63.6832 34.6942 63.6832C35.9937 63.6832 36.4334 62.5858 36.4334 61.6191V61.5319H37.6695V61.6191C37.6695 63.3583 36.7266 64.6539 35.126 64.8559L34.5198 66.7576H33.2481L34.2821 64.8559Z" fill="white"/>
<path id="Vector_31" d="M41.1322 55.8704H42.5189L45.3516 64.7529H44.0561L43.4499 62.7482H40.1497L39.5316 64.7529H38.248L41.1322 55.8704ZM39.698 53.9964C40.1259 53.7072 40.4904 53.6042 40.843 53.6042C41.5126 53.6042 42.0791 54.0083 42.6932 54.0083C43.0339 54.0083 43.438 53.8934 43.8897 53.5685V54.4996C43.4618 54.8284 43.0973 54.9274 42.7566 54.9274C42.087 54.9274 41.572 54.5115 40.9302 54.4877C40.5894 54.4877 40.1616 54.6026 39.6941 54.9274V53.9964H39.698ZM43.1488 61.6785L41.8255 57.2293L40.4666 61.6785H43.1488Z" fill="white"/>
<path id="Vector_32" d="M45.8072 61.7934V58.8061C45.8072 56.9916 47.0156 55.7198 48.7668 55.7198C50.5179 55.7198 51.7382 56.9916 51.7382 58.8061V61.7934C51.7382 63.6079 50.5021 64.8678 48.7668 64.8678C47.0315 64.8678 45.8072 63.6079 45.8072 61.7934ZM48.7668 63.6832C49.6344 63.6832 50.4941 63.1285 50.4941 61.8449V58.7586C50.4941 57.5383 49.7374 56.9084 48.7668 56.9084C47.8991 56.9084 47.0393 57.4631 47.0393 58.7467V61.833C47.0393 63.0533 47.7961 63.6832 48.7668 63.6832Z" fill="white"/>
<path id="Vector_33" d="M55.8942 55.8704H60.8346V57.0669H57.1303V59.7372H59.8283V60.8346H57.1303V63.5564H60.8346V64.7529H55.8942V55.8704Z" fill="white"/>
<path id="Vector_34" d="M64.9272 55.8704H66.1633V64.7529H64.9272V55.8704Z" fill="white"/>
<path id="Vector_35" d="M67.9224 55.8704H69.0674L72.6449 62.3956V55.8704H73.8929V64.7529H72.7321L69.1546 58.2515V64.7529H67.9185V55.8704H67.9224Z" fill="white"/>
<path id="Vector_36" d="M75.656 55.8704H78.5046C80.2557 55.8704 81.476 56.9916 81.476 59.1587V61.4527C81.476 63.6079 80.2557 64.7529 78.5046 64.7529H75.656V55.8704ZM78.3659 63.5683C79.4356 63.5683 80.2438 63.0136 80.2438 61.1634V59.4361C80.2438 57.6096 79.4515 57.0669 78.3659 57.0669H76.8921V63.5683H78.3659Z" fill="white"/>
<path id="Vector_37" d="M82.8626 61.7934V55.8704H84.0987V61.829C84.0987 63.1285 84.9426 63.6792 85.8261 63.6792C86.7849 63.6792 87.5654 63.0493 87.5654 61.829V55.8704H88.8015V61.7934C88.8015 63.6079 87.5654 64.8678 85.8301 64.8678C84.0948 64.8678 82.8706 63.6079 82.8706 61.7934H82.8626ZM86.1748 52.899H87.4584L86.2104 54.8759H85.2794L86.1748 52.899Z" fill="white"/>
<path id="Vector_38" d="M90.0772 61.932H91.2975C91.2975 63.2672 92.0027 63.7347 93.0605 63.7347C94.0431 63.7347 94.7721 63.2672 94.7721 62.3362C94.7721 61.4051 93.9163 61.1278 92.9456 60.8505C91.6738 60.4741 90.2 60.0937 90.2 58.2158C90.2 56.6152 91.2341 55.7079 92.9971 55.7079C94.7601 55.7079 95.9091 56.6786 95.9091 58.5922H94.6888C94.6888 57.3719 94.047 56.8529 93.0011 56.8529C91.9551 56.8529 91.4282 57.3323 91.4282 58.2118C91.4282 59.2063 92.3711 59.4717 93.4052 59.7609C94.6532 60.1135 96.0121 60.5177 96.0121 62.3045C96.0121 63.9684 94.879 64.8995 93.0645 64.8995C91.2499 64.8995 90.0772 63.9169 90.0772 61.9281V61.932Z" fill="white"/>
<path id="Vector_39" d="M98.7577 57.0708H96.6143V55.8743H102.145V57.0708H99.9898V64.7569H98.7537V57.0708H98.7577Z" fill="white"/>
<path id="Vector_40" d="M103.342 55.8704H106.024C107.826 55.8704 108.983 56.9797 108.983 58.9686V59.2221C108.983 60.6959 108.215 61.6151 107.054 61.932L108.944 64.7529H107.521L105.885 62.1935H104.574V64.7529H103.338V55.8704H103.342ZM105.889 61.0129C106.947 61.0129 107.767 60.482 107.767 59.2102V58.9091C107.767 57.5225 106.959 57.0708 105.889 57.0708H104.578V61.0129H105.889Z" fill="white"/>
<path id="Vector_41" d="M110.307 55.8704H111.543V64.7529H110.307V55.8704Z" fill="white"/>
<path id="Vector_42" d="M115.382 55.8704H116.768L119.601 64.7529H118.306L117.699 62.7482H114.399L113.781 64.7529H112.497L115.382 55.8704ZM117.398 61.6785L116.075 57.2293L114.716 61.6785H117.398Z" fill="white"/>
<path id="Vector_43" d="M122.953 61.7934V58.7824C122.953 56.9678 124.161 55.7079 125.912 55.7079C127.664 55.7079 128.884 57.055 128.884 58.9091V58.9844H127.648V58.8972C127.648 57.8513 127.093 56.9084 125.908 56.9084C125.041 56.9084 124.181 57.4631 124.181 58.7467V61.833C124.181 63.0533 124.938 63.6832 125.908 63.6832C127.208 63.6832 127.648 62.5858 127.648 61.6191V61.5319H128.884V61.6191C128.884 63.5089 127.763 64.8836 125.912 64.8836C124.161 64.8836 122.953 63.6119 122.953 61.7973V61.7934Z" fill="white"/>
<path id="Vector_44" d="M130.021 61.7934V58.8061C130.021 56.9916 131.229 55.7198 132.98 55.7198C134.732 55.7198 135.952 56.9916 135.952 58.8061V61.7934C135.952 63.6079 134.716 64.8678 132.98 64.8678C131.245 64.8678 130.021 63.6079 130.021 61.7934ZM132.98 63.6832C133.848 63.6832 134.708 63.1285 134.708 61.8449V58.7586C134.708 57.5383 133.951 56.9084 132.98 56.9084C132.113 56.9084 131.253 57.4631 131.253 58.7467V61.833C131.253 63.0533 132.01 63.6832 132.98 63.6832Z" fill="white"/>
<path id="Vector_45" d="M137.461 55.8704H138.606L142.184 62.3956V55.8704H143.432V64.7529H142.271L138.693 58.2515V64.7529H137.457V55.8704H137.461Z" fill="white"/>
<path id="Vector_46" d="M145.195 55.8704H150.135V57.0669H146.431V59.7372H149.129V60.8346H146.431V63.5564H150.135V64.7529H145.195V55.8704Z" fill="white"/>
<path id="Vector_47" d="M151.078 61.7934V58.7824C151.078 56.9678 152.287 55.7079 154.038 55.7079C155.789 55.7079 157.009 57.055 157.009 58.9091V58.9844H155.773V58.8972C155.773 57.8513 155.218 56.9084 154.034 56.9084C153.166 56.9084 152.306 57.4631 152.306 58.7467V61.833C152.306 63.0533 153.063 63.6832 154.034 63.6832C155.333 63.6832 155.773 62.5858 155.773 61.6191V61.5319H157.009V61.6191C157.009 63.5089 155.888 64.8836 154.038 64.8836C152.287 64.8836 151.078 63.6119 151.078 61.7973V61.7934Z" fill="white"/>
<path id="Vector_48" d="M159.719 57.0708H157.576V55.8743H163.106V57.0708H160.951V64.7569H159.715V57.0708H159.719Z" fill="white"/>
<path id="Vector_49" d="M165.44 55.8704H166.827L169.659 64.7529H168.364L167.758 62.7482H164.457L163.839 64.7529H162.556L165.44 55.8704ZM167.453 61.6785L166.129 57.2293L164.77 61.6785H167.453Z" fill="white"/>
<path id="Vector_50" d="M170.614 55.8704H173.463C175.214 55.8704 176.434 56.9916 176.434 59.1587V61.4527C176.434 63.6079 175.214 64.7529 173.463 64.7529H170.614V55.8704ZM173.324 63.5683C174.394 63.5683 175.202 63.0136 175.202 61.1634V59.4361C175.202 57.6096 174.41 57.0669 173.324 57.0669H171.85V63.5683H173.324Z" fill="white"/>
<path id="Vector_51" d="M179.774 55.8704H181.161L183.993 64.7529H182.698L182.092 62.7482H178.792L178.174 64.7529H176.89L179.774 55.8704ZM181.787 61.6785L180.463 57.2293L179.105 61.6785H181.787Z" fill="white"/>
<path id="Vector_52" d="M184.346 61.932H185.566C185.566 63.2672 186.272 63.7347 187.329 63.7347C188.312 63.7347 189.041 63.2672 189.041 62.3362C189.041 61.4051 188.185 61.1278 187.214 60.8505C185.943 60.4741 184.469 60.0937 184.469 58.2158C184.469 56.6152 185.503 55.7079 187.266 55.7079C189.029 55.7079 190.178 56.6786 190.178 58.5922H188.958C188.958 57.3719 188.316 56.8529 187.27 56.8529C186.224 56.8529 185.697 57.3323 185.697 58.2118C185.697 59.2063 186.64 59.4717 187.674 59.7609C188.922 60.1135 190.281 60.5177 190.281 62.3045C190.281 63.9684 189.148 64.8995 187.333 64.8995C185.519 64.8995 184.346 63.9169 184.346 61.9281V61.932Z" fill="white"/>
</g>
<g id="Group_5">
<path id="Vector_53" d="M144.395 25.7641H151.712C151.712 30.1103 153.939 31.9129 157.172 31.9129C160.404 31.9129 162.524 30.4827 162.524 27.4083C162.524 24.3338 159.133 23.2721 155.262 22.0558C150.385 20.4116 144.87 18.3989 144.87 10.9744C144.87 4.1362 149.747 0 157.168 0C164.588 0 169.362 4.82557 169.362 12.5116H162.152C162.152 8.53388 160.191 6.67972 157.061 6.67972C153.931 6.67972 152.184 8.16542 152.184 10.9744C152.184 14.1558 155.365 15.1621 159.073 16.3269C164.002 17.8641 169.834 19.6667 169.834 27.3528C169.834 34.4564 164.743 38.6956 157.164 38.6956C149.585 38.6956 144.387 33.7671 144.387 25.7601L144.395 25.7641Z" fill="white"/>
<path id="Vector_54" d="M175.091 0.689363H186.806C194.176 0.689363 199.476 5.51493 199.476 14.2588V15.7445C199.476 24.5438 194.176 29.1554 186.806 29.1554H182.405V38.0617H175.091V0.689363ZM186.066 22.2103C189.247 22.2103 192.27 20.7246 192.27 15.689V14.3103C192.27 8.79536 189.144 7.68207 186.066 7.68207H182.409V22.2063H186.066V22.2103Z" fill="white"/>
</g>
<path id="Vector_55" d="M139.601 15.2215H131.455V23.3671H139.601V15.2215Z" fill="#DD1C4A"/>
</g>
</svg>
